<?xml version="1.0" encoding="UTF-8"?>
<svg viewBox="0 0 25 15" version="1.1" xmlns="http://www.w3.org/2000/svg" xmlns:xlink="http://www.w3.org/1999/xlink">
    <!-- Generator: Sketch 50.2 (55047) - http://www.bohemiancoding.com/sketch -->
    <title>behance</title>
    <desc>Created with Sketch.</desc>
    <defs></defs>
    <g id="Page-1" stroke="none" stroke-width="1" fill-rule="evenodd">
        <g id="Artboard-1" transform="translate(-172.000000, -79.000000)">
            <g id="behance" transform="translate(172.000000, 79.000000)">
                <polygon points="17 2 23 2 23 0 17 0"></polygon>
                <path d="M7.84215768,12.3347509 C7.72300335,12.3357192 7.62087106,12.3347509 7.55378416,12.3347509 L3.55560546,12.3347509 L3.55560546,8.32514946 L8.07145469,8.32515803 C8.07145469,8.32515803 9.70457001,8.30385616 9.70457001,10.3856298 C9.70457001,12.139161 8.48599162,12.3202269 7.84215768,12.3347509 Z M3.55560546,2.66660679 L7.48970116,2.66660679 L8.07145469,2.66660679 C8.07145469,2.66660679 9.16787484,2.66660679 9.16787484,4.22648462 C9.16787484,5.78636245 8.52203831,6.01293689 7.79109154,6.01293689 L3.55560546,6.01293689 L3.55560546,2.66660679 Z M10.0920719,6.84758288 C10.0920719,6.84758288 12.4581366,6.67716792 12.4581366,3.99313232 C12.4581366,1.31006499 10.5236309,0 8.07145469,0 L3.55560546,0 L3.42343426,0 L0,0 L0,14.9994211 L3.42343426,14.9994211 L3.55560546,14.9994211 L8.07145469,14.9994211 C8.07145469,14.9994211 12.9968344,15.1504708 12.9968344,10.5725053 C12.9968344,10.5725053 13.2121132,6.84758288 10.0920719,6.84758288 Z"></path>
                <path d="M17.1775822,7.70406062 C17.1775822,7.70406062 17.4982041,5.29141097 19.8101579,5.29141097 C22.1221118,5.29141097 22.0902544,7.70406062 22.0902544,7.70406062 L17.1775822,7.70406062 Z M19.7512485,3 C13.9984043,3 14.0051644,9.01141767 14.0051644,9.01141767 C14.0051644,9.01141767 13.6092157,14.9955566 19.7512485,14.9955566 C19.7512485,14.9955566 24.8725063,15.3016843 24.8725063,10.8320184 L22.2379992,10.8320184 C22.2379992,10.8320184 22.3249147,12.5162257 19.8391298,12.5162257 C19.8391298,12.5162257 17.2075198,12.6990941 17.2075198,9.79239681 L24.9594219,9.79239681 C24.9594219,9.79239681 25.8073314,3 19.7512485,3 Z"></path>
            </g>
        </g>
    </g>
</svg>
