<?xml version="1.0" encoding="utf-8"?>
<!-- Generator: Adobe Illustrator 22.1.0, SVG Export Plug-In . SVG Version: 6.00 Build 0)  -->
<svg version="1.1" xmlns="http://www.w3.org/2000/svg" xmlns:xlink="http://www.w3.org/1999/xlink" x="0px" y="0px"
	 viewBox="0 0 66 66" style="enable-background:new 0 0 66 66;" xml:space="preserve">
<style type="text/css">
	.st0{display:none;}
	.st1{display:inline;}
	.st2{fill:#34A5DE;}
	.st3{fill:#1F1F1F;}
	.st4{display:inline;fill:none;stroke:#E3E3E2;stroke-width:0.7539;stroke-miterlimit:10;}
	.st5{fill:none;stroke:#E3E3E2;stroke-width:1.5;stroke-miterlimit:10;}
	.st6{display:inline;fill:none;stroke:#E3E3E2;stroke-width:1.5;stroke-miterlimit:10;}
	.st7{fill:#E3E3E2;}
	.st8{fill:#F7F8F9;}
	.st9{fill:#2AA6DF;}
	.st10{opacity:0.5;fill:#FFFFFF;}
	.st11{fill:#FFFFFF;}
	.st12{opacity:0.2;}
	.st13{fill:#19A7E0;}
	.st14{display:inline;fill:none;stroke:#13171B;stroke-width:0.1409;stroke-miterlimit:10;}
	.st15{fill:#27A5DE;}
	.st16{fill:#14181B;}
	.st17{fill:none;stroke:#19A7E0;stroke-width:0.75;stroke-miterlimit:10;}
	.st18{fill:#02060D;}
	.st19{fill:#18A7E0;}
	.st20{fill:#17A8E0;}
	.st21{fill:none;stroke:#14181B;stroke-width:0.386;stroke-miterlimit:10;}
	.st22{fill:none;stroke:#13171B;stroke-width:0.2623;stroke-miterlimit:10;}
	.st23{fill:none;stroke:#FFFFFF;stroke-width:0.5562;stroke-miterlimit:10;}
	.st24{fill:none;stroke:#243F7E;stroke-width:0.25;stroke-miterlimit:10;}
	.st25{fill:none;stroke:#243F7E;stroke-miterlimit:10;}
	.st26{fill:none;stroke:#D1D3D4;stroke-width:0.2434;stroke-miterlimit:10;}
	.st27{fill:none;stroke:#13171B;stroke-width:0.1924;stroke-miterlimit:10;}
	.st28{fill:none;stroke:#FFFFFF;stroke-width:0.4079;stroke-miterlimit:10;}
	.st29{fill:none;stroke:#FFFFFF;stroke-width:0.4015;stroke-miterlimit:10;}
	.st30{fill:#13171B;}
	.st31{fill:none;stroke:#000000;stroke-width:1.5;stroke-miterlimit:10;}
	.st32{fill:none;stroke:#000000;stroke-width:1.5;stroke-linecap:round;stroke-linejoin:round;stroke-miterlimit:10;}
</style>
<g id="Layer_1" class="st0">
</g>
<g id="bgr">
</g>
<g id="Layer_2">
	<path class="st30" d="M33,66C14.8,66,0,51.2,0,33S14.8,0,33,0s33,14.8,33,33S51.2,66,33,66z M33,2.2C16,2.2,2.2,16,2.2,33
		S16,63.8,33,63.8S63.8,50,63.8,33S50,2.2,33,2.2z"/>
	<g>
		<path class="st30" d="M22.1,30.6L22.1,30.6c0.8-0.8,2.2-0.8,3.1,0l7.8,7.8l7.8-7.8c0.8-0.8,2.2-0.8,3.1,0l0,0L33,41.5L22.1,30.6z"
			/>
		<path class="st30" d="M43.9,42.5H22.1c-0.6,0-1-0.4-1-1s0.4-1,1-1h21.8c0.6,0,1,0.4,1,1S44.5,42.5,43.9,42.5z"/>
	</g>
</g>
<g id="Layer_3">
</g>
</svg>
