<?xml version="1.0" encoding="UTF-8"?>
<svg width="26px" height="17px" viewBox="0 0 26 17" version="1.1" xmlns="http://www.w3.org/2000/svg" xmlns:xlink="http://www.w3.org/1999/xlink">
    <!-- Generator: Sketch 50.2 (55047) - http://www.bohemiancoding.com/sketch -->
    <title>iframe</title>
    <desc>Created with Sketch.</desc>
    <defs></defs>
    <g id="Page-1" stroke="none" stroke-width="1" fill="none" fill-rule="evenodd">
        <g id="Artboard-1" transform="translate(-281.000000, -78.000000)" fill="#000000" fill-rule="nonzero">
            <g id="iframe" transform="translate(281.000000, 78.000000)">
                <path d="M8.63210987,17 C8.52174284,17 8.4113758,16.9660679 8.37458679,16.8982036 L0.0970589524,8.31337325 C-0.050097098,8.17764471 -0.0133080854,7.9740519 0.0970589524,7.83832335 L8.37458679,0.101796407 C8.52174284,-0.0339321357 8.74247691,-0.0339321357 8.88963296,0.101796407 C9.03678901,0.23752495 9.03678901,0.441117764 8.88963296,0.576846307 L0.869628217,8.0758483 L8.88963296,16.4231537 C9.03678901,16.5588822 9,16.762475 8.85284395,16.8982036 C8.81605494,16.9660679 8.7056879,17 8.63210987,17 Z" id="Shape"></path>
                <path d="M17.3707099,17 C17.2975803,17 17.1878859,16.9660679 17.1147564,16.8982036 C16.9684972,16.762475 16.9684972,16.5588822 17.0781916,16.4231537 L25.1224451,8.0758483 L17.1147564,0.576846307 C16.9684972,0.441117764 16.9684972,0.23752495 17.1147564,0.101796407 C17.2610155,-0.0339321357 17.4804042,-0.0339321357 17.6266634,0.101796407 L25.8903056,7.83832335 C26.0365648,7.9740519 26.0365648,8.17764471 25.8903056,8.31337325 L17.6266634,16.8982036 C17.5535338,16.9660679 17.4804042,17 17.3707099,17 Z" id="Shape"></path>
                <path d="M10.3791366,14 C10.3431174,14 10.3070982,14 10.271079,14 C10.090983,13.9667766 9.9469063,13.7674365 10.0189447,13.6013196 L13.2966908,2.2389292 C13.3327099,2.07281238 13.5488251,1.97314229 13.728921,2.00636565 C13.909017,2.03958902 14.0530937,2.2389292 13.9810553,2.40504602 L10.7393284,13.7674365 C10.6672901,13.9003299 10.5232133,14 10.3791366,14 Z" id="Shape"></path>
            </g>
        </g>
    </g>
</svg>