<svg viewBox="0 0 16 16" fill="black" xmlns="http://www.w3.org/2000/svg">
<path d="M3.55556 1.77778C3.55556 2.75556 2.93333 3.55556 1.77778 3.55556C0.711111 3.55556 0 2.75556 0 1.86667C0 0.888889 0.711111 0 1.77778 0C2.84444 0 3.55556 0.8 3.55556 1.77778ZM0 16H3.55556V4.44444H0V16ZM12.0889 4.62222C10.2222 4.62222 9.15556 5.68889 8.71111 6.4H8.62222L8.44444 4.88889H5.24444C5.24444 5.86667 5.33333 7.02222 5.33333 8.35556V16H8.88889V9.68889C8.88889 9.33333 8.88889 9.06667 8.97778 8.8C9.24444 8.17778 9.68889 7.37778 10.6667 7.37778C11.9111 7.37778 12.4444 8.44444 12.4444 9.86667V16H16V9.42222C16 6.13333 14.3111 4.62222 12.0889 4.62222Z"/>
</svg>
