<svg viewBox="0 0 34 34" xmlns="http://www.w3.org/2000/svg">
<path fill-rule="evenodd" clip-rule="evenodd" d="M18 1C26.8366 1 34 8.16344 34 17C34 25.8366 26.8366 33 18 33C9.16344 33 2 25.8366 2 17C2 8.16344 9.16344 1 18 1ZM18 11C21.3137 11 24 13.6863 24 17C24 20.3137 21.3137 23 18 23C14.6863 23 12 20.3137 12 17C12 13.6863 14.6863 11 18 11Z" />
<path fill-rule="evenodd" clip-rule="evenodd" d="M0 17C0 7.61116 7.61116 0 17 0C26.3888 0 34 7.61116 34 17C34 26.3888 26.3888 34 17 34C7.61116 34 0 26.3888 0 17ZM17 2C8.71573 2 2 8.71573 2 17C2 25.2843 8.71573 32 17 32C25.2843 32 32 25.2843 32 17C32 8.71573 25.2843 2 17 2ZM10 17C10 13.134 13.134 10 17 10C20.866 10 24 13.134 24 17C24 20.866 20.866 24 17 24C13.134 24 10 20.866 10 17ZM17 12C14.2386 12 12 14.2386 12 17C12 19.7614 14.2386 22 17 22C19.7614 22 22 19.7614 22 17C22 14.2386 19.7614 12 17 12Z" />
</svg>
