<svg width="149" height="25" viewBox="0 0 149 25" fill="none" xmlns="http://www.w3.org/2000/svg">
    <title>stein-logo</title>
    <path d="M24.375 5L12.1875 0L6.09375 2.5L24.375 10V5Z" fill="black"/>
    <path d="M24.375 15V20L0 10V5L24.375 15Z" fill="black"/>
    <path d="M18.2812 22.5L0 15V20L12.1875 25L18.2812 22.5Z" fill="black"/>
    <path d="M42.6872 19.6014C43.1316 19.8653 43.6176 19.9972 44.1453 19.9972H53.3519C53.8796 19.9972 54.3587 19.8653 54.7891 19.6014C55.2335 19.3376 55.5876 18.9904 55.8514 18.56C56.1153 18.1156 56.2472 17.6296 56.2472 17.1019V14.0191C56.2472 13.4776 56.1153 12.9916 55.8514 12.5611C55.5876 12.1167 55.2335 11.7626 54.7891 11.4988C54.3587 11.2349 53.8796 11.103 53.3519 11.103H44.2494C44.18 11.103 44.1175 11.0822 44.062 11.0405C44.0203 10.9989 43.9995 10.9433 43.9995 10.8739V8.02027C43.9995 7.95084 44.0203 7.89529 44.062 7.85363C44.1175 7.79809 44.18 7.77031 44.2494 7.77031H53.2269C53.2964 7.77031 53.3519 7.79809 53.3936 7.85363C53.4491 7.89529 53.4769 7.95084 53.4769 8.02027V9.04091H56.2472V7.89529C56.2472 7.36761 56.1153 6.88853 55.8514 6.45806C55.5876 6.0137 55.2335 5.6596 54.7891 5.39576C54.3587 5.13192 53.8796 5 53.3519 5H44.1453C43.6176 5 43.1316 5.13192 42.6872 5.39576C42.2568 5.6596 41.9096 6.0137 41.6458 6.45806C41.3819 6.88853 41.25 7.36761 41.25 7.89529V10.978C41.25 11.5196 41.3819 12.0126 41.6458 12.4569C41.9096 12.8874 42.2568 13.2346 42.6872 13.4984C43.1316 13.7622 43.6176 13.8942 44.1453 13.8942H53.2269C53.2964 13.8942 53.3519 13.915 53.3936 13.9567C53.4491 13.9983 53.4769 14.0539 53.4769 14.1233V16.9769C53.4769 17.0464 53.4491 17.1088 53.3936 17.1644C53.3519 17.206 53.2964 17.2269 53.2269 17.2269H44.2494C44.18 17.2269 44.1175 17.206 44.062 17.1644C44.0203 17.1088 43.9995 17.0464 43.9995 16.9769V15.9563H41.25V17.1019C41.25 17.6296 41.3819 18.1156 41.6458 18.56C41.9096 18.9904 42.2568 19.3376 42.6872 19.6014Z" fill="black"/>
    <path d="M73.6849 7.77031V19.9972H76.4552V7.77031H82.5582V5H67.561V7.77031H73.6849Z" fill="black"/>
    <path d="M93.9478 19.9972V5H107.758V7.77031H96.7181V11.103H105.591V13.8942H96.7181V17.2269H107.758V19.9972H93.9478Z" fill="black"/>
    <path d="M119.352 5V19.9972H122.08V5H119.352Z" fill="black"/>
    <path d="M133.888 19.9972V5H136.908L146.115 15.9563V5H148.885V19.9972H145.865L136.637 9.02008V19.9972H133.888Z" fill="black"/>
</svg>
