<svg width="108" height="15" viewBox="0 0 108 15" fill="none" xmlns="http://www.w3.org/2000/svg">
    <title>stein-wordmark</title>
    <path d="M1.68723 14.6014C2.13159 14.8653 2.61761 14.9972 3.14529 14.9972H12.3519C12.8796 14.9972 13.3587 14.8653 13.7891 14.6014C14.2335 14.3376 14.5876 13.9904 14.8514 13.56C15.1153 13.1156 15.2472 12.6296 15.2472 12.1019V9.01914C15.2472 8.47758 15.1153 7.99156 14.8514 7.56108C14.5876 7.11672 14.2335 6.76262 13.7891 6.49878C13.3587 6.23494 12.8796 6.10302 12.3519 6.10302H3.24944C3.18001 6.10302 3.11752 6.08219 3.06197 6.04053C3.02031 5.99887 2.99949 5.94333 2.99949 5.8739V3.02027C2.99949 2.95084 3.02031 2.89529 3.06197 2.85363C3.11752 2.79809 3.18001 2.77031 3.24944 2.77031H12.2269C12.2964 2.77031 12.3519 2.79809 12.3936 2.85363C12.4491 2.89529 12.4769 2.95084 12.4769 3.02027V4.04091H15.2472V2.89529C15.2472 2.36761 15.1153 1.88853 14.8514 1.45806C14.5876 1.0137 14.2335 0.659598 13.7891 0.395759C13.3587 0.13192 12.8796 0 12.3519 0H3.14529C2.61761 0 2.13159 0.13192 1.68723 0.395759C1.25676 0.659598 0.909599 1.0137 0.64576 1.45806C0.38192 1.88853 0.25 2.36761 0.25 2.89529V5.97804C0.25 6.51961 0.38192 7.01257 0.64576 7.45693C0.909599 7.88741 1.25676 8.23457 1.68723 8.49841C2.13159 8.76225 2.61761 8.89417 3.14529 8.89417H12.2269C12.2964 8.89417 12.3519 8.91499 12.3936 8.95665C12.4491 8.99831 12.4769 9.05386 12.4769 9.12329V11.9769C12.4769 12.0464 12.4491 12.1088 12.3936 12.1644C12.3519 12.206 12.2964 12.2269 12.2269 12.2269H3.24944C3.18001 12.2269 3.11752 12.206 3.06197 12.1644C3.02031 12.1088 2.99949 12.0464 2.99949 11.9769V10.9563H0.25V12.1019C0.25 12.6296 0.38192 13.1156 0.64576 13.56C0.909599 13.9904 1.25676 14.3376 1.68723 14.6014Z" fill="black"/>
    <path d="M32.6849 2.77031V14.9972H35.4552V2.77031H41.5582V0H26.561V2.77031H32.6849Z" fill="black"/>
    <path d="M52.9478 14.9972V0H66.7577V2.77031H55.7181V6.10302H64.5914V8.89417H55.7181V12.2269H66.7577V14.9972H52.9478Z" fill="black"/>
    <path d="M78.3516 0V14.9972H81.0802V0H78.3516Z" fill="black"/>
    <path d="M92.8877 14.9972V0H95.908L105.115 10.9563V0H107.885V14.9972H104.865L95.6372 4.02008V14.9972H92.8877Z" fill="black"/>
</svg>
