<svg viewBox="0 0 28 27" version="1.1" xmlns="http://www.w3.org/2000/svg" xmlns:xlink="http://www.w3.org/1999/xlink">
    <title>study</title>
    <path d="M8.704875,14.0625 L5.625,14.0625 C5.3145,14.0625 5.0625,13.8105 5.0625,13.5 C5.0625,13.1895 5.3145,12.9375 5.625,12.9375 L8.625375,12.9375 C8.625375,12.93075 8.625,12.925125 8.625,12.918375 C8.625,12.008625 8.772,11.133375 9.03975,10.3125 L5.625,10.3125 C5.3145,10.3125 5.0625,10.0605 5.0625,9.75 C5.0625,9.4395 5.3145,9.1875 5.625,9.1875 L9.4995,9.1875 C10.877625,6.4125 13.74075,4.5 17.043375,4.5 C18.47325,4.5 19.8195,4.85925 21,5.490375 L21,0 L0,0 L0,27 L21,27 L21,20.34675 C19.819875,20.977875 18.47325,21.337125 17.043375,21.337125 C12.78975,21.33675 9.265125,18.165 8.704875,14.0625 Z M3.1875,5.25 C3.1875,4.9395 3.4395,4.6875 3.75,4.6875 L6.75,4.6875 C7.0605,4.6875 7.3125,4.9395 7.3125,5.25 C7.3125,5.5605 7.0605,5.8125 6.75,5.8125 L3.75,5.8125 C3.4395,5.8125 3.1875,5.5605 3.1875,5.25 Z" fill="black"/>
    <path d="M28,21.5846391 L23.5554771,17.0682216 C24.1726371,15.9829604 24.5316508,14.726502 24.5316508,13.3827369 C24.5320244,9.30513085 21.2792329,6 17.2658254,6 C13.2516707,6 10,9.30513085 10,13.3827369 C10,17.4603429 13.2516707,20.7654738 17.2658254,20.7654738 C18.7369972,20.7654738 20.1039392,20.3179316 21.2478519,19.5545667 L25.6225146,24 L28,21.5846391 Z M11.9915736,14.5408802 L18.2188369,14.5408802 C18.528164,14.5408802 18.7792122,14.2857926 18.7792122,13.9714882 C18.7792122,13.6571838 18.528164,13.4020962 18.2188369,13.4020962 L11.8686646,13.4020962 C11.8686646,13.3952635 11.8679175,13.3895696 11.8679175,13.3827369 C11.8679175,12.4269175 12.1107468,11.5280373 12.5355112,10.7449335 L18.2188369,10.7449335 C18.528164,10.7449335 18.7792122,10.4898458 18.7792122,10.1755414 C18.7792122,9.86123706 18.528164,9.60614943 18.2188369,9.60614943 L13.3615043,9.60614943 C14.3451496,8.55619056 15.7300237,7.89797339 17.2658254,7.89797339 C20.2421651,7.89797339 22.6637333,10.3581265 22.6637333,13.3827369 C22.6637333,16.4073473 20.2421651,18.8675004 17.2658254,18.8675004 C14.6806276,18.8675004 12.516832,17.0105232 11.9915736,14.5408802 Z" fill="black"/>
</svg>