<?xml version="1.0" encoding="UTF-8"?>
<svg width="45px" height="25px" viewBox="0 0 45 25" version="1.1" xmlns="http://www.w3.org/2000/svg" xmlns:xlink="http://www.w3.org/1999/xlink">
    <!-- Generator: Sketch 50.2 (55047) - http://www.bohemiancoding.com/sketch -->
    <title>vr-glasses</title>
    <desc>Created with Sketch.</desc>
    <defs></defs>
    <g id="Page-1" stroke="none" stroke-width="1" fill="none" fill-rule="evenodd">
        <g id="Artboard-1" transform="translate(-375.000000, -72.000000)" fill="#000000" fill-rule="nonzero">
            <path d="M419.1,72 L375.9,72 C375.4,72 375,72.3703704 375,72.8333333 L375,96.1666667 C375,96.6296296 375.4,97 375.9,97 L392.35,97 C392.75,97 393.1,96.7685185 393.2,96.4444444 L395.45,90.1018519 C396.1,88.2962963 398.85,88.2962963 399.5,90.1018519 L401.8,96.4444444 C401.9,96.7685185 402.25,97 402.65,97 L419.1,97 C419.6,97 420,96.6296296 420,96.1666667 L420,72.8333333 C420,72.3703704 419.6,72 419.1,72 Z M385,88 C382.777778,88 381,86.2222222 381,84 C381,81.7777778 382.777778,80 385,80 C387.222222,80 389,81.7777778 389,84 C389,86.2222222 387.222222,88 385,88 Z M408,88 C405.777778,88 404,86.2222222 404,84 C404,81.7777778 405.777778,80 408,80 C410.222222,80 412,81.7777778 412,84 C412,86.2222222 410.222222,88 408,88 Z" id="vrglass"></path>
        </g>
    </g>
</svg>