<svg viewBox="0 0 197 50" xmlns="http://www.w3.org/2000/svg">
<path fill-rule="evenodd" clip-rule="evenodd" d="M171.825 1.09127H25C11.7956 1.09127 1.09127 11.7956 1.09127 25C1.09127 38.2044 11.7956 48.9087 25 48.9087H171.825C185.03 48.9087 195.734 38.2044 195.734 25C195.734 11.7956 185.03 1.09127 171.825 1.09127ZM25 0C11.1929 0 0 11.1929 0 25C0 38.8071 11.1929 50 25 50H171.825C185.633 50 196.825 38.8071 196.825 25C196.825 11.1929 185.633 0 171.825 0H25Z" />
<path d="M72.5782 20.302L69.121 29.4359L65.6442 20.302H64.7996L61.3032 29.4556L57.8853 20.302H56.9425L60.8317 30.5556H61.7353L65.2121 21.6573L68.6692 30.5556H69.5925L73.4817 20.302H72.5782Z" />
<path d="M79.3094 20.2234C77.7183 20.2234 76.2255 20.7734 75.204 21.677L75.6951 22.3841C76.5397 21.6181 77.8165 21.0877 79.2308 21.0877C81.2344 21.0877 82.2755 22.1091 82.2755 24.0145V24.8395H78.7594C75.9112 24.8395 74.929 26.1556 74.929 27.7073C74.929 29.4556 76.3237 30.6341 78.6219 30.6341C80.4094 30.6341 81.6665 29.9073 82.3147 28.7288V30.5556H83.2576V24.0538C83.2576 21.5198 81.8433 20.2234 79.3094 20.2234ZM78.7594 29.8288C76.9522 29.8288 75.9112 29.0038 75.9112 27.6681C75.9112 26.4895 76.6576 25.6056 78.779 25.6056H82.2755V27.5306C81.6862 29.0038 80.488 29.8288 78.7594 29.8288Z" />
<path d="M92.372 29.2198C91.9595 29.5931 91.3899 29.7895 90.781 29.7895C89.5238 29.7895 88.8756 29.0627 88.8756 27.7466V21.1466H92.1363V20.302H88.8756V18.0627H87.8935V20.302H86.0078V21.1466H87.8935V27.8448C87.8935 29.5734 88.8756 30.6341 90.6827 30.6341C91.4488 30.6341 92.2738 30.3984 92.7845 29.9073L92.372 29.2198Z" />
<path d="M99.618 30.6341C101.248 30.6341 102.663 29.9859 103.507 28.7484L102.78 28.2181C102.034 29.2591 100.895 29.7502 99.618 29.7502C97.2019 29.7502 95.434 28.0216 95.434 25.4288C95.434 22.8359 97.2019 21.1073 99.618 21.1073C100.895 21.1073 102.034 21.5984 102.78 22.6395L103.507 22.1091C102.663 20.852 101.248 20.2234 99.618 20.2234C96.6126 20.2234 94.4322 22.3645 94.4322 25.4288C94.4322 28.4734 96.6126 30.6341 99.618 30.6341Z" />
<path d="M111.677 20.2234C109.771 20.2234 108.357 21.0484 107.65 22.4431V15.9806H106.668V30.5556H107.65V25.0948C107.65 22.6591 109.123 21.1073 111.539 21.1073C113.621 21.1073 114.859 22.3252 114.859 24.6431V30.5556H115.841V24.5645C115.841 21.6966 114.171 20.2234 111.677 20.2234Z" />
<path d="M132.944 20.302L128.819 29.4752L124.733 20.302H123.692L128.308 30.5556H129.31L133.946 20.302H132.944Z" />
<path d="M136.977 17.8073C137.429 17.8073 137.782 17.4538 137.782 17.002C137.782 16.5698 137.429 16.2163 136.977 16.2163C136.525 16.2163 136.171 16.5895 136.171 17.0216C136.171 17.4538 136.525 17.8073 136.977 17.8073ZM136.486 30.5556H137.468V20.302H136.486V30.5556Z" />
<path d="M150.132 15.9806V22.6788C149.307 21.127 147.775 20.2234 145.949 20.2234C143.061 20.2234 140.881 22.3448 140.881 25.4288C140.881 28.4931 143.061 30.6341 145.949 30.6341C147.795 30.6341 149.347 29.7306 150.152 28.1395V30.5556H151.115V15.9806H150.132ZM146.007 29.7502C143.65 29.7502 141.882 28.002 141.882 25.4288C141.882 22.8556 143.65 21.1073 146.007 21.1073C148.365 21.1073 150.132 22.8556 150.132 25.4288C150.132 28.002 148.365 29.7502 146.007 29.7502Z" />
<path d="M164.33 25.3895C164.33 22.3448 162.248 20.2234 159.439 20.2234C156.63 20.2234 154.529 22.3841 154.529 25.4288C154.529 28.4734 156.709 30.6341 159.813 30.6341C161.364 30.6341 162.779 30.0645 163.682 28.9645L163.113 28.3163C162.327 29.2788 161.129 29.7502 159.832 29.7502C157.377 29.7502 155.589 28.1002 155.491 25.6645H164.311C164.311 25.5663 164.33 25.4681 164.33 25.3895ZM159.439 21.0877C161.62 21.0877 163.23 22.6788 163.368 24.8984H155.511C155.668 22.6591 157.259 21.0877 159.439 21.0877Z" />
<path d="M171.769 30.6341C174.715 30.6341 176.896 28.4734 176.896 25.4288C176.896 22.3841 174.715 20.2234 171.769 20.2234C168.822 20.2234 166.642 22.3841 166.642 25.4288C166.642 28.4734 168.822 30.6341 171.769 30.6341ZM171.769 29.7502C169.412 29.7502 167.644 28.002 167.644 25.4288C167.644 22.8556 169.412 21.1073 171.769 21.1073C174.126 21.1073 175.894 22.8556 175.894 25.4288C175.894 28.002 174.126 29.7502 171.769 29.7502Z" />
<path fill-rule="evenodd" clip-rule="evenodd" d="M44.4444 26.1905L26.5873 15.8806V36.5003L44.4444 26.1905ZM42.2619 26.1905L27.6786 17.7708V34.6102L42.2619 26.1905Z" />
</svg>
