<svg viewBox="0 0 205 42" xmlns="http://www.w3.org/2000/svg">
<path d="M67.4889 25.1687C68.1289 25.1687 68.6515 24.95 69.0569 24.5127C69.4622 24.0647 69.6649 23.4993 69.6649 22.8167V22.3367H69.1689C68.3049 22.3367 67.6222 22.3793 67.1209 22.4647C66.6302 22.5393 66.2835 22.678 66.0809 22.8807C65.8889 23.0727 65.7929 23.3393 65.7929 23.6807C65.7929 24.118 65.9422 24.4753 66.2409 24.7527C66.5502 25.03 66.9662 25.1687 67.4889 25.1687Z" />
<path d="M104.274 25.1047C105 25.1047 105.581 24.8487 106.018 24.3367C106.456 23.814 106.674 23.0727 106.674 22.1127C106.674 21.142 106.456 20.4007 106.018 19.8887C105.581 19.3767 105 19.1207 104.274 19.1207C103.538 19.1207 102.952 19.3767 102.514 19.8887C102.088 20.4007 101.874 21.142 101.874 22.1127C101.874 23.0727 102.088 23.814 102.514 24.3367C102.952 24.8487 103.538 25.1047 104.274 25.1047Z" />
<path d="M135.696 19.0407C134.96 19.0407 134.379 19.27 133.952 19.7287C133.526 20.1873 133.275 20.79 133.2 21.5367H137.92C137.888 20.7473 137.68 20.134 137.296 19.6967C136.923 19.2593 136.39 19.0407 135.696 19.0407Z" />
<path d="M163.234 24.3367C162.797 24.8487 162.216 25.1047 161.49 25.1047C160.754 25.1047 160.168 24.8487 159.73 24.3367C159.304 23.814 159.09 23.0727 159.09 22.1127C159.09 21.142 159.304 20.4007 159.73 19.8887C160.168 19.3767 160.754 19.1207 161.49 19.1207C162.216 19.1207 162.797 19.3767 163.234 19.8887C163.672 20.4007 163.891 21.142 163.891 22.1127C163.891 23.0727 163.672 23.814 163.234 24.3367Z" />
<path d="M171.203 19.0407C170.467 19.0407 169.885 19.27 169.459 19.7287C169.032 20.1873 168.781 20.79 168.707 21.5367H173.427C173.395 20.7473 173.187 20.134 172.803 19.6967C172.429 19.2593 171.896 19.0407 171.203 19.0407Z" />
<path d="M181.718 24.3367C181.281 24.8487 180.7 25.1047 179.974 25.1047C179.238 25.1047 178.652 24.8487 178.214 24.3367C177.788 23.814 177.574 23.0727 177.574 22.1127C177.574 21.142 177.788 20.4007 178.214 19.8887C178.652 19.3767 179.238 19.1207 179.974 19.1207C180.7 19.1207 181.281 19.3767 181.718 19.8887C182.156 20.4007 182.374 21.142 182.374 22.1127C182.374 23.0727 182.156 23.814 181.718 24.3367Z" />
<path fill-rule="evenodd" clip-rule="evenodd" d="M20 0C8.95431 0 0 8.9543 0 20V22C0 33.0457 8.95431 42 20 42H185C196.046 42 205 33.0457 205 22V20C205 8.95431 196.046 0 185 0H20ZM21.75 29.7279L36 21.5007L21.75 13.2734V29.7279ZM50.384 18.2247L53.28 26.0007H54.528L56.736 19.9687L58.928 26.0007H60.16L63.072 18.2247H61.776L59.552 24.4967L57.312 18.2247H56.208L53.936 24.4807L51.744 18.2247H50.384ZM67.2809 26.1447C66.7475 26.1447 66.2675 26.0433 65.8409 25.8407C65.4249 25.6273 65.0942 25.3393 64.8489 24.9767C64.6035 24.614 64.4809 24.2087 64.4809 23.7607C64.4809 23.1953 64.6249 22.7473 64.9129 22.4167C65.2115 22.086 65.6969 21.8513 66.3689 21.7127C67.0515 21.5633 67.9795 21.4887 69.1529 21.4887H69.6649V20.9927C69.6649 20.3313 69.5262 19.8567 69.2489 19.5687C68.9822 19.27 68.5502 19.1207 67.9529 19.1207C67.4835 19.1207 67.0302 19.19 66.5929 19.3287C66.1555 19.4567 65.7075 19.67 65.2489 19.9687L64.8009 19.0247C65.2062 18.7367 65.6969 18.5073 66.2729 18.3367C66.8595 18.166 67.4195 18.0807 67.9529 18.0807C68.9555 18.0807 69.6969 18.326 70.1769 18.8167C70.6675 19.3073 70.9129 20.07 70.9129 21.1047V26.0007H69.6969V24.6567C69.4942 25.1153 69.1795 25.478 68.7529 25.7447C68.3369 26.0113 67.8462 26.1447 67.2809 26.1447ZM74.6933 25.4247C75.1519 25.9047 75.8399 26.1447 76.7572 26.1447C77.0026 26.1447 77.2586 26.1127 77.5253 26.0487C77.7919 25.9847 77.9946 25.9153 78.1332 25.8407L77.9092 24.8487C77.7706 24.8913 77.6159 24.934 77.4453 24.9767C77.2746 25.0193 77.1039 25.0407 76.9333 25.0407C76.3573 25.0407 75.9412 24.886 75.6852 24.5767C75.4293 24.2567 75.3013 23.7927 75.3013 23.1847V19.2327H77.7652V18.2247H75.3013V15.8407H74.0052V18.2247H72.4852V19.2327H74.0052V23.3127C74.0052 24.23 74.2346 24.934 74.6933 25.4247ZM82.7689 26.1447C81.9902 26.1447 81.3182 25.9793 80.7529 25.6487C80.1875 25.3073 79.7502 24.8327 79.4409 24.2247C79.1422 23.606 78.9929 22.886 78.9929 22.0647C78.9929 20.8273 79.3289 19.8567 80.0009 19.1527C80.6729 18.438 81.5955 18.0807 82.7689 18.0807C83.2489 18.0807 83.7235 18.166 84.1929 18.3367C84.6622 18.5073 85.0515 18.7473 85.3609 19.0567L84.9129 20.0007C84.6035 19.702 84.2622 19.4833 83.8889 19.3447C83.5262 19.206 83.1795 19.1367 82.8489 19.1367C82.0382 19.1367 81.4142 19.3927 80.9769 19.9047C80.5395 20.406 80.3209 21.1313 80.3209 22.0807C80.3209 23.0087 80.5395 23.7447 80.9769 24.2887C81.4142 24.822 82.0382 25.0887 82.8489 25.0887C83.1795 25.0887 83.5262 25.0193 83.8889 24.8807C84.2622 24.742 84.6035 24.518 84.9129 24.2087L85.3609 25.1527C85.0515 25.462 84.6569 25.7073 84.1769 25.8887C83.7075 26.0593 83.2382 26.1447 82.7689 26.1447ZM87.1991 14.7207V26.0007H88.4951V21.5687C88.4951 20.8327 88.7031 20.246 89.1191 19.8087C89.5458 19.3607 90.1165 19.1367 90.8311 19.1367C91.4498 19.1367 91.8978 19.3073 92.1751 19.6487C92.4631 19.9793 92.6071 20.5073 92.6071 21.2327V26.0007H93.9031V21.1527C93.9031 19.1047 92.9805 18.0807 91.1351 18.0807C90.5591 18.0807 90.0365 18.2033 89.5671 18.4487C89.1085 18.6833 88.7511 19.0353 88.4951 19.5047V14.7207H87.1991ZM104.274 26.1447C103.517 26.1447 102.861 25.9793 102.306 25.6487C101.752 25.318 101.32 24.854 101.01 24.2567C100.712 23.6487 100.562 22.934 100.562 22.1127C100.562 21.2913 100.712 20.582 101.01 19.9847C101.32 19.3767 101.752 18.9073 102.306 18.5767C102.861 18.246 103.517 18.0807 104.274 18.0807C105.021 18.0807 105.672 18.246 106.226 18.5767C106.792 18.9073 107.224 19.3767 107.522 19.9847C107.832 20.582 107.986 21.2913 107.986 22.1127C107.986 22.934 107.832 23.6487 107.522 24.2567C107.224 24.854 106.792 25.318 106.226 25.6487C105.672 25.9793 105.021 26.1447 104.274 26.1447ZM110.591 19.2327V26.0007H111.887V19.2327H114.127V18.2247H111.887V17.7927C111.887 17.142 112.031 16.646 112.319 16.3047C112.617 15.9633 113.097 15.766 113.759 15.7127L114.495 15.6647L114.383 14.6727L113.759 14.7047C112.681 14.7687 111.881 15.0673 111.359 15.6007C110.847 16.134 110.591 16.918 110.591 17.9527V18.2247H109.055V19.2327H110.591ZM115.989 26.0007V19.2327H114.453V18.2247H115.989V17.9527C115.989 16.918 116.245 16.134 116.757 15.6007C117.28 15.0673 118.08 14.7687 119.157 14.7047L119.749 14.6727L119.829 15.6807L119.157 15.7127C118.496 15.7553 118.016 15.9527 117.717 16.3047C117.429 16.646 117.285 17.142 117.285 17.7927V18.2247H122.085V26.0007H120.789V19.2327H117.285V26.0007H115.989ZM120.645 16.2887V14.8327H122.229V16.2887H120.645ZM126.11 25.6487C126.676 25.9793 127.348 26.1447 128.126 26.1447C128.596 26.1447 129.065 26.0593 129.534 25.8887C130.014 25.7073 130.409 25.462 130.718 25.1527L130.27 24.2087C129.961 24.518 129.62 24.742 129.246 24.8807C128.884 25.0193 128.537 25.0887 128.206 25.0887C127.396 25.0887 126.772 24.822 126.334 24.2887C125.897 23.7447 125.678 23.0087 125.678 22.0807C125.678 21.1313 125.897 20.406 126.334 19.9047C126.772 19.3927 127.396 19.1367 128.206 19.1367C128.537 19.1367 128.884 19.206 129.246 19.3447C129.62 19.4833 129.961 19.702 130.27 20.0007L130.718 19.0567C130.409 18.7473 130.02 18.5073 129.55 18.3367C129.081 18.166 128.606 18.0807 128.126 18.0807C126.953 18.0807 126.03 18.438 125.358 19.1527C124.686 19.8567 124.35 20.8273 124.35 22.0647C124.35 22.886 124.5 23.606 124.798 24.2247C125.108 24.8327 125.545 25.3073 126.11 25.6487ZM135.904 26.1447C134.678 26.1447 133.707 25.7873 132.992 25.0727C132.278 24.3473 131.92 23.366 131.92 22.1287C131.92 21.3287 132.08 20.6247 132.4 20.0167C132.72 19.398 133.158 18.9233 133.712 18.5927C134.278 18.2513 134.928 18.0807 135.664 18.0807C136.72 18.0807 137.547 18.422 138.144 19.1047C138.742 19.7767 139.04 20.7047 139.04 21.8887V22.3847H133.184C133.227 23.27 133.483 23.9473 133.952 24.4167C134.422 24.8753 135.072 25.1047 135.904 25.1047C136.374 25.1047 136.822 25.0353 137.248 24.8967C137.675 24.7473 138.08 24.5073 138.464 24.1767L138.912 25.0887C138.56 25.4193 138.112 25.6807 137.568 25.8727C137.024 26.054 136.47 26.1447 135.904 26.1447ZM146.017 18.2247H144.609L147.953 26.0007H149.169L152.529 18.2247H151.201L148.593 24.5287L146.017 18.2247ZM154.06 16.2887V14.8327H155.66V16.2887H154.06ZM154.22 18.2247H155.516V26.0007H154.22V18.2247ZM159.395 25.6487C159.917 25.9793 160.525 26.1447 161.219 26.1447C161.837 26.1447 162.381 26.006 162.85 25.7287C163.32 25.4513 163.667 25.0673 163.891 24.5767V26.0007H165.154V14.7207H163.859V19.5847C163.635 19.1153 163.288 18.7473 162.818 18.4807C162.36 18.214 161.827 18.0807 161.219 18.0807C160.525 18.0807 159.917 18.246 159.395 18.5767C158.883 18.8967 158.482 19.3607 158.195 19.9687C157.917 20.566 157.779 21.2807 157.779 22.1127C157.779 22.934 157.917 23.6487 158.195 24.2567C158.482 24.854 158.883 25.318 159.395 25.6487ZM171.411 26.1447C170.184 26.1447 169.213 25.7873 168.499 25.0727C167.784 24.3473 167.427 23.366 167.427 22.1287C167.427 21.3287 167.587 20.6247 167.907 20.0167C168.227 19.398 168.664 18.9233 169.219 18.5927C169.784 18.2513 170.435 18.0807 171.171 18.0807C172.227 18.0807 173.053 18.422 173.651 19.1047C174.248 19.7767 174.547 20.7047 174.547 21.8887V22.3847H168.691C168.733 23.27 168.989 23.9473 169.459 24.4167C169.928 24.8753 170.579 25.1047 171.411 25.1047C171.88 25.1047 172.328 25.0353 172.755 24.8967C173.181 24.7473 173.587 24.5073 173.971 24.1767L174.419 25.0887C174.067 25.4193 173.619 25.6807 173.075 25.8727C172.531 26.054 171.976 26.1447 171.411 26.1447ZM178.006 25.6487C178.561 25.9793 179.217 26.1447 179.974 26.1447C180.721 26.1447 181.372 25.9793 181.926 25.6487C182.492 25.318 182.924 24.854 183.222 24.2567C183.532 23.6487 183.686 22.934 183.686 22.1127C183.686 21.2913 183.532 20.582 183.222 19.9847C182.924 19.3767 182.492 18.9073 181.926 18.5767C181.372 18.246 180.721 18.0807 179.974 18.0807C179.217 18.0807 178.561 18.246 178.006 18.5767C177.452 18.9073 177.02 19.3767 176.71 19.9847C176.412 20.582 176.262 21.2913 176.262 22.1127C176.262 22.934 176.412 23.6487 176.71 24.2567C177.02 24.854 177.452 25.318 178.006 25.6487Z" />
</svg>
