<?xml version="1.0" standalone="no"?>
<!DOCTYPE svg PUBLIC "-//W3C//DTD SVG 20010904//EN"
 "http://www.w3.org/TR/2001/REC-SVG-20010904/DTD/svg10.dtd">
<svg version="1.0" xmlns="http://www.w3.org/2000/svg"
 width="512.000000pt" height="512.000000pt" viewBox="0 0 512.000000 512.000000"
 preserveAspectRatio="xMidYMid meet">
<metadata>
Created by potrace 1.14, written by Peter Selinger 2001-2017
</metadata>
<g transform="translate(0.000000,512.000000) scale(0.100000,-0.100000)"
fill="#000000" stroke="none">
<path d="M2500 5096 c-70 -30 -298 -123 -465 -191 -71 -29 -197 -81 -280 -115
-82 -34 -211 -87 -285 -117 -74 -30 -138 -58 -142 -62 -5 -4 52 -31 125 -60
72 -30 150 -62 172 -72 22 -9 87 -36 145 -59 58 -23 119 -47 135 -55 26 -11
1910 -785 2120 -870 170 -69 701 -288 730 -300 17 -7 77 -32 135 -54 58 -23
117 -49 133 -57 15 -8 28 -14 28 -12 1 2 2 232 3 511 2 478 1 509 -16 518 -19
10 -2476 1019 -2480 1019 -2 -1 -28 -11 -58 -24z"/>
<path d="M64 3583 l0 -508 40 -18 c23 -10 97 -41 166 -69 69 -28 139 -56 155
-64 17 -7 509 -209 1095 -449 586 -240 1078 -443 1094 -451 16 -8 33 -14 37
-14 5 0 32 -11 61 -24 29 -13 112 -47 183 -76 72 -29 149 -61 172 -71 23 -11
45 -19 48 -19 4 0 21 -7 38 -15 18 -8 84 -35 147 -61 63 -25 129 -52 145 -59
72 -32 1597 -655 1603 -655 4 0 7 229 7 509 l1 509 -471 193 c-258 106 -486
199 -505 208 -19 8 -37 15 -40 16 -3 1 -18 7 -35 14 -16 7 -129 53 -250 103
-121 49 -233 96 -250 103 -16 7 -102 42 -190 78 -292 119 -830 339 -860 352
-16 7 -192 79 -390 160 -198 80 -373 152 -390 160 -74 33 -1598 655 -1604 655
-4 0 -7 -228 -7 -507z"/>
<path d="M64 1538 c1 -467 2 -510 18 -519 9 -5 571 -237 1249 -515 1027 -421
1236 -504 1253 -495 12 6 188 78 391 161 204 83 379 155 390 160 11 5 110 46
220 90 110 45 203 85 207 88 4 4 -151 72 -345 151 -193 79 -370 152 -392 161
-35 16 -1230 506 -1375 565 -79 32 -643 264 -1145 470 -237 97 -439 180 -451
185 l-20 8 0 -510z"/>
</g>
</svg>
